<svg style="display:none">

    <symbol xmlns="http://www.w3.org/2000/svg" id="Close" viewBox="0 0 512 512">
        <path fill="inherit" stroke="currentColor" stroke-linecap="round" stroke-linejoin="round" stroke-width="32"
              d="M368 368L144 144M368 144L144 368"/>
    </symbol>

    <symbol viewBox="0 0 19 18" id="Add" xmlns="http://www.w3.org/2000/svg">
        <path d="M8.0019 17C8.0019 17.5523 8.4497 18 9.0019 18C9.5542 18 10.0019 17.5523 10.0019 17V9.9999H17.0019C17.5542 9.9999 18.0019 9.5522 18.0019 8.9999C18.0019 8.4476 17.5542 7.9999 17.0019 7.9999H10.0019V1C10.0019 0.44772 9.5542 0 9.0019 0C8.4497 0 8.0019 0.44772 8.0019 1V7.9999H1.00195C0.449673 7.9999 0.00195312 8.4476 0.00195312 8.9999C0.00195312 9.5522 0.449673 9.9999 1.00195 9.9999H8.0019V17Z"
              fill="inherit"/>
    </symbol>

    <symbol viewBox="0 0 20 14" id="Checked" xmlns="http://www.w3.org/2000/svg">
        <path d="M18.9953 1.96425C19.387 1.57492 19.3889 0.941759 18.9996 0.550049C18.6102 0.158339 17.9771 0.15642 17.5854 0.54575L6.97661 11.0903L2.41377 6.5573C2.02196 6.1681 1.3888 6.1702 0.99956 6.562C0.61032 6.9538 0.6124 7.5869 1.0042 7.9762L6.27201 13.2095C6.66206 13.597 7.29179 13.5969 7.68175 13.2093L18.9953 1.96425Z"
              fill="inherit"/>
    </symbol>


    <symbol viewBox="0 0 20 19" id="Date" xmlns="http://www.w3.org/2000/svg">
        <path fill-rule="evenodd" clip-rule="evenodd"
              d="M2 2.99998H4V1.74998C4 1.19769 4.44772 0.749981 5 0.749981C5.55229 0.749981 6 1.19769 6 1.74998V2.99998H14V1.74998C14 1.19769 14.4477 0.749981 15 0.749981C15.5523 0.749981 16 1.19769 16 1.74998V2.99998H18C19.1046 2.99998 20 3.89541 20 4.99998V17C20 18.1046 19.1046 19 18 19H2C0.89543 19 0 18.1046 0 17V4.99998C0 3.89541 0.89543 2.99998 2 2.99998ZM2 17V9H18V17H2ZM18 4.99998V6.99998H2V4.99998H18Z"
              fill="inherit"/>
    </symbol>

    <symbol viewBox="0 0 20 21" id="Remove" xmlns="http://www.w3.org/2000/svg">
        <path d="M8 8.99998C8.5523 8.99998 9 9.4477 9 10V15C9 15.5523 8.5523 16 8 16C7.44772 16 7 15.5523 7 15V10C7 9.4477 7.44772 8.99998 8 8.99998Z"
              fill="inherit"/>
        <path d="M12 8.99998C12.5523 8.99998 13 9.4477 13 10V15C13 15.5523 12.5523 16 12 16C11.4477 16 11 15.5523 11 15V10C11 9.4477 11.4477 8.99998 12 8.99998Z"
              fill="inherit"/>
        <path fill-rule="evenodd" clip-rule="evenodd"
              d="M7 -3.05176e-05C5.89543 -3.05176e-05 5 0.895402 5 1.99997V3.99997H1C0.44772 3.99997 0 4.44768 0 4.99997C0 5.55225 0.44772 5.99997 1 5.99997H2.11765L2.88926 19.1174C2.95145 20.1746 3.82686 21 4.88581 21H15.1142C16.1731 21 17.0486 20.1746 17.1107 19.1174L17.8824 5.99997H19C19.5523 5.99997 20 5.55225 20 4.99997C20 4.44768 19.5523 3.99997 19 3.99997H15V1.99997C15 0.895402 14.1046 -3.05176e-05 13 -3.05176e-05H7ZM4.12111 5.99997L4.88581 19H15.1142L15.8789 5.99997H4.12111ZM7 1.99997H13V3.99997H7V1.99997Z"
              fill="inherit"/>
    </symbol>


    <symbol xmlns="http://www.w3.org/2000/svg" viewBox="0 0 32 32" id="Home">
        <path d="M14.667 2.10312L3.60802 8.48803C3.02571 8.82421 2.66699 9.44553 2.66699 10.1179C2.66699 11.1574 3.50962 12 4.54905 12H27.4517C28.491 12 29.3337 11.1574 29.3337 10.1179C29.3337 9.44555 28.975 8.82423 28.3926 8.48803L17.3337 2.10312C16.5086 1.62676 15.4921 1.62676 14.667 2.10312ZM16.0003 4.41252L7.47726 9.33332H24.5234L16.0003 4.41252Z"
              fill="inherit"
              fill-rule="evenodd" clip-rule="evenodd"
        />
        <path d="M16.0003 14.6667C16.7367 14.6667 17.3337 15.2637 17.3337 16.0001V22.6667C17.3337 23.403 16.7367 24.0001 16.0003 24.0001C15.2639 24.0001 14.667 23.403 14.667 22.6667V16.0001C14.667 15.2637 15.2639 14.6667 16.0003 14.6667Z"
              fill="inherit" fill-rule="evenodd" clip-rule="evenodd"/>
        <path d="M28.0003 29.3334C28.7367 29.3334 29.3337 28.7363 29.3337 28.0001C29.3337 27.2637 28.7367 26.6667 28.0003 26.6667H4.00033C3.26395 26.6667 2.66699 27.2637 2.66699 28.0001C2.66699 28.7363 3.26395 29.3334 4.00033 29.3334H28.0003Z"
              fill="inherit" fill-rule="evenodd" clip-rule="evenodd"/>
        <path d="M23.3337 14.6667C24.0701 14.6667 24.667 15.2637 24.667 16.0001V22.6667C24.667 23.403 24.0701 24.0001 23.3337 24.0001C22.5973 24.0001 22.0003 23.403 22.0003 22.6667V16.0001C22.0003 15.2637 22.5973 14.6667 23.3337 14.6667Z"
              fill="inherit" fill-rule="evenodd" clip-rule="evenodd"/>
        <path d="M8.66699 14.6667C9.40338 14.6667 10.0003 15.2637 10.0003 16.0001V22.6667C10.0003 23.403 9.40338 24.0001 8.66699 24.0001C7.93062 24.0001 7.33366 23.403 7.33366 22.6667V16.0001C7.33366 15.2637 7.93062 14.6667 8.66699 14.6667Z"
              fill="inherit" fill-rule="evenodd" clip-rule="evenodd"/>
    </symbol>

    <symbol xmlns="http://www.w3.org/2000/svg" id="Close" viewBox="0 0 512 512">
        <path fill="inherit" stroke="currentColor" stroke-linecap="round" stroke-linejoin="round" stroke-width="32"
              d="M368 368L144 144M368 144L144 368"/>
    </symbol>

    <symbol viewBox="0 0 64 64" id="Logo" xmlns="http://www.w3.org/2000/svg">
        <path
                d="M29.8114 10L28.2333 20.2803H38.9529L40.531 10H45.7717L44.1935 20.2803H50V25.4351H43.3896L41.6923 36.5941H50V41.749H40.8883L39.3697 52H34.129L35.6476 41.749H24.928L23.4094 52H18.1687L19.6873 41.749H14V36.5941H20.4615L22.1886 25.4351H14V20.2803H22.9628L24.5707 10H29.8114ZM25.732 36.5941H36.4516L38.1489 25.4351H27.4293L25.732 36.5941Z"
                fill="inherit"/>

    </symbol>

    <symbol viewBox="0 0 40 40" id="Receipt" xmlns="http://www.w3.org/2000/svg">
        <path fill-rule="evenodd" clip-rule="evenodd"
              d="M26.667 13.3333C26.667 14.2537 25.9208 14.9999 25.0003 14.9999H15.0003C14.0799 14.9999 13.3337 14.2537 13.3337 13.3333C13.3337 12.4128 14.0799 11.6666 15.0003 11.6666H25.0003C25.9208 11.6666 26.667 12.4128 26.667 13.3333Z"
              fill="inherit"/>
        <path fill-rule="evenodd" clip-rule="evenodd"
              d="M21.667 21.6666C22.5875 21.6666 23.3337 20.9204 23.3337 19.9999C23.3337 19.0794 22.5875 18.3333 21.667 18.3333H15.0003C14.0799 18.3333 13.3337 19.0794 13.3337 19.9999C13.3337 20.9204 14.0799 21.6666 15.0003 21.6666H21.667Z"
              fill="inherit"/>
        <path fill-rule="evenodd" clip-rule="evenodd"
              d="M25.8337 31.6666L30.5755 35.7761C31.6547 36.7116 33.3337 35.9449 33.3337 34.5166V6.66659C33.3337 4.82564 31.8413 3.33325 30.0003 3.33325H10.0003C8.15938 3.33325 6.66699 4.82564 6.66699 6.66659V34.5166C6.66699 35.9449 8.34593 36.7116 9.42521 35.7761L14.167 31.6666L18.9105 35.7663C19.5363 36.3073 20.4643 36.3073 21.0902 35.7663L25.8337 31.6666ZM11.9839 29.1476C13.2355 28.0629 15.0936 28.0616 16.3467 29.1446L20.0003 32.3024L23.654 29.1446C24.907 28.0616 26.7652 28.0629 28.0168 29.1476L30.0003 30.8668V6.66659H10.0003V30.8668L11.9839 29.1476Z"
              fill="inherit"/>
    </symbol>

    <symbol viewBox="0 0 24 24" id="Users" xmlns="http://www.w3.org/2000/svg">
        <path fill-rule="evenodd" clip-rule="evenodd"
              d="M7 10.5C9.07107 10.5 10.75 8.82107 10.75 6.75C10.75 4.67893 9.07107 3 7 3C4.92893 3 3.25 4.67893 3.25 6.75C3.25 8.82107 4.92893 10.5 7 10.5ZM7 8.5C7.9665 8.5 8.75 7.7165 8.75 6.75C8.75 5.7835 7.9665 5 7 5C6.0335 5 5.25 5.7835 5.25 6.75C5.25 7.7165 6.0335 8.5 7 8.5Z"
              fill="inherit"/>
        <path fill-rule="evenodd" clip-rule="evenodd"
              d="M20.75 6.75C20.75 8.82107 19.0711 10.5 17 10.5C14.9289 10.5 13.25 8.82107 13.25 6.75C13.25 4.67893 14.9289 3 17 3C19.0711 3 20.75 4.67893 20.75 6.75ZM18.75 6.75C18.75 7.7165 17.9665 8.5 17 8.5C16.0335 8.5 15.25 7.7165 15.25 6.75C15.25 5.7835 16.0335 5 17 5C17.9665 5 18.75 5.7835 18.75 6.75Z"
              fill="inherit"/>
        <path fill-rule="evenodd" clip-rule="evenodd"
              d="M15.4587 14.1763C15.9532 14.061 16.4691 14 17 14C18.9818 14 20.7624 14.8517 22 16.2153V18H16C16 18.7286 15.8052 19.4117 15.4649 20H22C23.1046 20 24 19.1046 24 18V16.1668C24 15.7334 23.8649 15.3068 23.5791 14.9811C21.9754 13.1536 19.6224 12 17 12C15.9266 12 14.8983 12.1933 13.948 12.547C14.3532 12.8904 14.7324 13.2632 15.0823 13.6619C15.2263 13.826 15.3513 13.9984 15.4587 14.1763Z"
              fill="inherit"/>
        <path fill-rule="evenodd" clip-rule="evenodd"
              d="M12 20C13.1046 20 14 19.1046 14 18V16.1668C14 15.7334 13.8649 15.3068 13.5791 14.9811C13.1123 14.4492 12.582 13.9743 12 13.5684C10.5827 12.5798 8.85906 12 7 12C4.37758 12 2.02461 13.1536 0.420908 14.9811C0.135096 15.3068 0 15.7334 0 16.1668V18C0 19.1046 0.895431 20 2 20H12ZM7 14C8.98184 14 10.7624 14.8517 12 16.2153V18H2V16.2153C3.23758 14.8517 5.01817 14 7 14ZM2.0002 16.1617C2.00019 16.1618 2.00023 16.1614 2.0002 16.1617V16.1617Z"
              fill="inherit"/>
    </symbol>

    <symbol viewBox="0 0 24 24" id="Heart" xmlns="http://www.w3.org/2000/svg">
        <path fill-rule="evenodd" clip-rule="evenodd"
              d="M16.4835 3.20752C18.0773 3.20752 19.6061 3.83996 20.7341 4.966C21.8621 6.09204 22.4972 7.61967 22.5 9.21352C22.5 12.4475 21.3135 13.991 16.011 18.1805L13.2876 20.2944C12.5299 20.8825 11.4701 20.8825 10.7124 20.2944L7.989 18.1805C2.6865 13.991 1.5 12.4475 1.5 9.21352C1.50278 7.61967 2.13789 6.09204 3.2659 4.966C4.39391 3.83996 5.92264 3.20752 7.5165 3.20752C9.14236 3.21524 10.7014 3.85542 11.8635 4.99252L12 5.1213L12.1365 4.99252C13.2986 3.85542 14.8576 3.21524 16.4835 3.20752ZM11.2224 7.21439C11.2414 7.2323 11.2604 7.2502 11.2793 7.26806C11.6839 7.64985 12.316 7.64985 12.7206 7.26806C12.7396 7.25014 12.7586 7.23219 12.7776 7.21421C13.7018 6.34171 14.6791 5.41894 15.9351 5.24685C16.1175 5.22187 16.3022 5.20862 16.4882 5.20752C17.5505 5.20877 18.5692 5.63084 19.3211 6.38145C20.0736 7.13262 20.4975 8.15148 20.5 9.21465C20.4999 10.4992 20.2885 11.2558 19.6287 12.1592C18.8538 13.2204 17.4465 14.4971 14.7778 16.6059L12.0613 18.7144C12.0252 18.7424 11.9748 18.7424 11.9387 18.7144L9.22213 16.6059C6.55344 14.4971 5.14619 13.2204 4.37123 12.1592C3.71159 11.2559 3.5002 10.4995 3.5 9.21537C3.50229 8.15194 3.92623 7.13279 4.67888 6.38145C5.4308 5.63084 6.44945 5.20877 7.51177 5.20752C7.69754 5.20861 7.88202 5.22184 8.06414 5.24676C9.32047 5.41867 10.2981 6.34169 11.2224 7.21439Z"
              fill="inherit"/>
    </symbol>

    <symbol viewBox="0 0 24 24" xmlns="http://www.w3.org/2000/svg" id="User">
        <path fill-rule="evenodd" clip-rule="evenodd"
              d="M12 13.5C13.933 13.5 15.5 11.933 15.5 10C15.5 8.067 13.933 6.5 12 6.5C10.067 6.5 8.5 8.067 8.5 10C8.5 11.933 10.067 13.5 12 13.5ZM12 11.5C12.8284 11.5 13.5 10.8284 13.5 10C13.5 9.17157 12.8284 8.5 12 8.5C11.1716 8.5 10.5 9.17157 10.5 10C10.5 10.8284 11.1716 11.5 12 11.5Z"
              fill="inherit"/>
        <path fill-rule="evenodd" clip-rule="evenodd"
              d="M17.2112 20.5365C20.0833 18.7794 22 15.6136 22 12C22 6.47715 17.5228 2 12 2C6.47715 2 2 6.47715 2 12C2 14.4815 2.90389 16.752 4.4004 18.5C4.77735 18.9403 5.1919 19.3474 5.63907 19.7165C7.36766 21.143 9.58376 22 12 22C13.9093 22 15.6936 21.4649 17.2112 20.5365ZM18.1513 17.1152C19.3057 15.7285 20 13.9453 20 12C20 7.58172 16.4183 4 12 4C7.58172 4 4 7.58172 4 12C4 13.9453 4.69434 15.7285 5.84871 17.1152C7.54517 15.7898 9.68034 15 12 15C14.3196 15 16.4548 15.7898 18.1513 17.1152ZM16.665 18.4998C15.3511 17.5548 13.7409 17 12 17C10.2591 17 8.64889 17.5548 7.33501 18.4998C8.57009 19.3878 10.0686 19.9325 11.6908 19.9941C11.7934 19.998 11.8964 20 12 20C12.1208 20 12.241 19.9973 12.3605 19.992C13.963 19.921 15.4429 19.3785 16.665 18.4998Z"
              fill="inherit"/>
    </symbol>

    <symbol viewBox="0 0 20 16" id="Mail" xmlns="http://www.w3.org/2000/svg">
        <path fill-rule="evenodd" clip-rule="evenodd"
              d="M0 2V14C0 15.1046 0.89543 16 2 16H18C19.1046 16 20 15.1046 20 14V2C20 0.89543 19.1046 0 18 0H2C0.89543 0 0 0.89543 0 2ZM2 14V5.46455L8.9998 9.5069C9.6187 9.8644 10.3813 9.8644 11.0002 9.5069L18 5.46455V14H2ZM10 7.775L2 3.155V2H18V3.155L10 7.775Z"
              fill="inherit"/>
    </symbol>

    <symbol viewBox="0 0 24 29" id="Notification" xmlns="http://www.w3.org/2000/svg">
        <path fill-rule="evenodd" clip-rule="evenodd"
              d="M6.75065 23.3334H1.78361C0.798547 23.3334 0 22.5349 0 21.5498V20.3858C0 19.712 0.267693 19.0657 0.744187 18.5893C1.97513 17.3583 2.66667 15.6887 2.66667 13.9479V10.0001C2.66667 4.84543 6.84535 0.666748 12 0.666748C17.1547 0.666748 21.3333 4.84543 21.3333 10.0001V13.9479C21.3333 15.6887 22.0249 17.3583 23.2559 18.5893C23.7323 19.0657 24 19.712 24 20.3858V21.5498C24 22.5349 23.2015 23.3334 22.2164 23.3334H17.2493C17.2493 23.8195 17.2393 24.8767 16.6731 25.9047C15.7693 27.5455 14.0175 28.6667 12 28.6667C9.98253 28.6667 8.23063 27.5455 7.32687 25.9047C6.76061 24.8767 6.75065 23.8195 6.75065 23.3334ZM18.6667 13.9479C18.6667 16.3786 19.6253 18.7104 21.3333 20.4378V20.6667H2.66667V20.4378C4.37465 18.7104 5.33333 16.3786 5.33333 13.9479V10.0001C5.33333 6.31819 8.31811 3.33341 12 3.33341C15.6819 3.33341 18.6667 6.31819 18.6667 10.0001V13.9479ZM14.5827 23.3334H9.41733C9.41733 23.7761 9.44907 24.2305 9.66267 24.6182C10.1151 25.4395 10.9879 25.9967 11.9911 26.0001H12H12.0088C13.0121 25.9967 13.8849 25.4395 14.3373 24.6182C14.5509 24.2305 14.5827 23.7761 14.5827 23.3334Z"
              fill="inherit"/>
    </symbol>

    <symbol viewBox="0 0 24 24" id="Chat" xmlns="http://www.w3.org/2000/svg">
        <path fill-rule="evenodd" clip-rule="evenodd"
              d="M0 9C0 10.5545 0.498805 12.0055 1.36191 13.2333L0.494498 16.2693C0.278969 17.0236 0.976393 17.721 1.73074 17.5055L5.58545 16.4042C6.06733 16.5799 6.57016 16.7196 7.08969 16.8194C7.08966 16.8194 7.08972 16.8195 7.08969 16.8194C7.70526 16.9377 8.34435 17.0001 8.99972 17.0001C9.1675 17.0001 9.33421 16.996 9.49973 16.9879C9.49954 16.9879 9.49991 16.9879 9.49973 16.9879C14.2381 16.7577 18 13.2694 18 9C18 4.58172 13.9706 1 9 1C4.02944 1 0 4.58172 0 9ZM3.28496 13.7828C3.45089 13.202 3.34547 12.5773 2.99811 12.0832C2.35542 11.1689 2 10.1153 2 9C2 5.90124 4.90604 3 9 3C13.094 3 16 5.90124 16 9C16 12.0988 13.094 15 9 15C8.02549 15 7.10445 14.8293 6.27081 14.5253C5.87419 14.3806 5.44195 14.3651 5.03601 14.4811L2.91204 15.088L3.28496 13.7828Z"
              fill="inherit"/>
        <path d="M19.5337 6.08789C19.8167 6.94292 19.9783 7.85289 19.9977 8.80484C21.2586 9.92076 21.9997 11.4352 21.9997 13.0001C21.9997 14.1154 21.6443 15.169 21.0016 16.0832C20.6543 16.5774 20.5488 17.2021 20.7148 17.7828L21.0877 19.088L18.9637 18.4812C18.5578 18.3652 18.1255 18.3806 17.7289 18.5253C16.8953 18.8294 15.9742 19.0001 14.9997 19.0001C14.0209 19.0001 13.1101 18.8342 12.2906 18.5395C11.2558 18.8357 10.1641 18.9956 9.0465 19C10.6331 20.2448 12.7172 21.0001 14.9997 21.0001C16.2083 21.0001 17.3613 20.7883 18.4143 20.4042L22.269 21.5056C23.0233 21.7211 23.7208 21.0237 23.5052 20.2693L22.6378 17.2334C23.5009 16.0055 23.9997 14.5546 23.9997 13.0001C23.9997 10.0514 22.2051 7.47537 19.5337 6.08789Z"
              fill="inherit"/>
    </symbol>

    <symbol viewBox="0 0 24 24" id="Card" xmlns="http://www.w3.org/2000/svg">
        <path d="M7 16.5C7.82843 16.5 8.5 15.8284 8.5 15C8.5 14.1716 7.82843 13.5 7 13.5C6.17157 13.5 5.5 14.1716 5.5 15C5.5 15.8284 6.17157 16.5 7 16.5Z"
              fill="inherit"/>
        <path fill-rule="evenodd" clip-rule="evenodd"
              d="M4 4C2.89543 4 2 4.89543 2 6V18C2 19.1046 2.89543 20 4 20H20C21.1046 20 22 19.1046 22 18V6C22 4.89543 21.1046 4 20 4H4ZM4 18V11H20V18H4ZM20 9V6H4V9H20Z"
              fill="inherit"/>
    </symbol>


    <symbol id="Emoji" viewBox="0 0 20 20" xmlns="http://www.w3.org/2000/svg">
        <path d="M8.5 8C8.5 8.8284 7.82843 9.5 7 9.5C6.17157 9.5 5.5 8.8284 5.5 8C5.5 7.17157 6.17157 6.5 7 6.5C7.82843 6.5 8.5 7.17157 8.5 8Z"
              fill="inherit"/>
        <path d="M13 9.5C13.8284 9.5 14.5 8.8284 14.5 8C14.5 7.17157 13.8284 6.5 13 6.5C12.1716 6.5 11.5 7.17157 11.5 8C11.5 8.8284 12.1716 9.5 13 9.5Z"
              fill="inherit"/>
        <path d="M6.53512 12C7.01318 11.7235 7.61752 11.9048 8.03459 12.2668C8.56159 12.7242 9.24889 13 9.99999 13C10.7511 13 11.4384 12.7242 11.9654 12.2668C12.3825 11.9048 12.9868 11.7235 13.4649 12C13.9429 12.2765 14.1127 12.897 13.7468 13.3107C12.8315 14.3457 11.4926 15 9.99999 15C8.50739 15 7.16845 14.3457 6.25319 13.3107C5.88733 12.897 6.05706 12.2765 6.53512 12Z"
              fill="inherit"/>
        <path fill-rule="evenodd" clip-rule="evenodd"
              d="M10 20C15.5228 20 20 15.5228 20 10C20 4.47715 15.5228 0 10 0C4.47715 0 0 4.47715 0 10C0 15.5228 4.47715 20 10 20ZM10 18C14.4183 18 18 14.4183 18 10C18 5.58172 14.4183 2 10 2C5.58172 2 2 5.58172 2 10C2 14.4183 5.58172 18 10 18Z"
              fill="inherit"/>
    </symbol>

    <symbol viewBox="0 0 19 18" id="Add" xmlns="http://www.w3.org/2000/svg">
        <path d="M8.0019 17C8.0019 17.5523 8.4497 18 9.0019 18C9.5542 18 10.0019 17.5523 10.0019 17V9.9999H17.0019C17.5542 9.9999 18.0019 9.5522 18.0019 8.9999C18.0019 8.4476 17.5542 7.9999 17.0019 7.9999H10.0019V1C10.0019 0.44772 9.5542 0 9.0019 0C8.4497 0 8.0019 0.44772 8.0019 1V7.9999H1.00195C0.449673 7.9999 0.00195312 8.4476 0.00195312 8.9999C0.00195312 9.5522 0.449673 9.9999 1.00195 9.9999H8.0019V17Z"
              fill="inherit"/>

    </symbol>

    <symbol id="Setting" viewBox="0 0 22 22" xmlns="http://www.w3.org/2000/svg">
        <path fill-rule="evenodd" clip-rule="evenodd"
              d="M11.0002 15C13.2094 15 15.0002 13.2091 15.0002 11C15.0002 8.79086 13.2094 7 11.0002 7C8.7911 7 7.00024 8.79086 7.00024 11C7.00024 13.2091 8.7911 15 11.0002 15ZM11.0002 13C12.1048 13 13.0002 12.1046 13.0002 11C13.0002 9.8954 12.1048 9 11.0002 9C9.89571 9 9.00021 9.8954 9.00021 11C9.00021 12.1046 9.89571 13 11.0002 13Z"
              fill="inherit"/>
        <path fill-rule="evenodd" clip-rule="evenodd"
              d="M14.1182 0.86489L14.5203 3.81406C14.8475 3.97464 15.1621 4.1569 15.4623 4.35898L18.2185 3.23223C18.6814 3.043 19.2129 3.2248 19.463 3.65787L21.5901 7.34213C21.8401 7.77521 21.7318 8.3264 21.3365 8.63266L18.9821 10.4566C18.9941 10.6362 19.0002 10.8174 19.0002 11C19.0002 11.1826 18.9941 11.3638 18.9821 11.5434L21.3365 13.3673C21.7318 13.6736 21.8401 14.2248 21.5901 14.6579L19.463 18.3421C19.2129 18.7752 18.6814 18.957 18.2185 18.7678L15.4623 17.641C15.1621 17.8431 14.8475 18.0254 14.5203 18.1859L14.1182 21.1351C14.0506 21.6306 13.6274 22 13.1273 22H8.87313C8.37306 22 7.94987 21.6306 7.8823 21.1351L7.48014 18.1859C7.15296 18.0254 6.83835 17.8431 6.53818 17.641L3.78195 18.7678C3.31907 18.957 2.78756 18.7752 2.53752 18.3421L0.410418 14.6579C0.160379 14.2248 0.268689 13.6736 0.664009 13.3673L3.01841 11.5434C3.00636 11.3638 3.00025 11.1826 3.00025 11C3.00025 10.8174 3.00636 10.6362 3.01841 10.4566L0.664009 8.63266C0.268689 8.3264 0.160379 7.77521 0.410409 7.34213L2.53752 3.65787C2.78755 3.2248 3.31906 3.043 3.78195 3.23223L6.53818 4.35898C6.83835 4.1569 7.15296 3.97464 7.48014 3.81406L7.8823 0.86489C7.94987 0.3694 8.37306 0 8.87313 0H13.1273C13.6274 0 14.0506 0.3694 14.1182 0.86489ZM12.6826 5.14003L13.6392 5.60948C13.8842 5.72975 14.1201 5.86639 14.3454 6.01805L15.231 6.61423L18.1674 5.41382L19.4216 7.58619L16.9153 9.5278L16.9866 10.5905C16.9956 10.7255 17.0002 10.8621 17.0002 11C17.0002 11.1379 16.9956 11.2745 16.9866 11.4095L16.9153 12.4722L19.4216 14.4138L18.1674 16.5862L15.231 15.3858L14.3454 15.982C14.1201 16.1336 13.8842 16.2702 13.6392 16.3905L12.6826 16.86L12.2545 20H9.746L9.3178 16.86L8.36131 16.3905C8.11626 16.2702 7.88037 16.1336 7.6551 15.982L6.76954 15.3858L3.83313 16.5862L2.57891 14.4138L5.0852 12.4722L5.01392 11.4095C5.00487 11.2745 5.00024 11.1379 5.00024 11C5.00024 10.8621 5.00487 10.7255 5.01392 10.5905L5.0852 9.5278L2.57891 7.58619L3.83312 5.41382L6.76953 6.61423L7.6551 6.01805C7.88037 5.86639 8.11625 5.72976 8.36131 5.60949L9.3178 5.14004L9.746 2H12.2545L12.6826 5.14003Z"
              fill="inherit"/>
    </symbol>

    <symbol viewBox="0 0 20 20" id="Earth" xmlns="http://www.w3.org/2000/svg">
        <path d="M6.96094 0.5C5.67536 0.5 4.41865 0.881219 3.34973 1.59545C2.28081 2.30968 1.44769 3.32484 0.955724 4.51256C0.463754 5.70028 0.335032 7.00721 0.585836 8.26809C0.83664 9.52897 1.45571 10.6872 2.36475 11.5962C3.27379 12.5052 4.43198 13.1243 5.69286 13.3751C6.95373 13.6259 8.26067 13.4972 9.44839 13.0052C10.6361 12.5133 11.6513 11.6801 12.3655 10.6112C13.0797 9.54229 13.4609 8.28558 13.4609 7C13.4591 5.27667 12.7737 3.62445 11.5551 2.40587C10.3365 1.18728 8.68428 0.501864 6.96094 0.5ZM7.23178 11.8615V11.1654C7.23178 10.5635 6.99266 9.98621 6.56703 9.56058C6.1414 9.13495 5.56412 8.89584 4.96219 8.89584H4.95678C4.73314 8.89585 4.51169 8.85179 4.30508 8.76619C4.09847 8.6806 3.91075 8.55513 3.75265 8.39696L2.09894 6.74217C2.14312 5.88165 2.41495 5.04828 2.88668 4.32723C3.35841 3.60617 4.01311 3.02328 4.78388 2.63811C5.55465 2.25295 6.41387 2.07931 7.27372 2.13496C8.13358 2.19061 8.96324 2.47353 9.67794 2.95483C9.53451 3.0601 9.36131 3.11701 9.1834 3.11733H8.40665C8.2959 3.11733 8.18624 3.13917 8.08394 3.18161C7.98165 3.22404 7.88872 3.28622 7.81049 3.36461C7.73225 3.443 7.67024 3.53604 7.62801 3.63842C7.58578 3.7408 7.56415 3.8505 7.56436 3.96125V4.52567C7.56436 4.74906 7.47562 4.9633 7.31766 5.12126C7.1597 5.27922 6.94546 5.36796 6.72207 5.36796C6.61127 5.36768 6.50151 5.38925 6.39907 5.43145C6.29663 5.47366 6.20352 5.53565 6.12508 5.61389C6.04663 5.69214 5.9844 5.78509 5.94193 5.88742C5.89947 5.98975 5.87761 6.09946 5.87761 6.21025V6.77467C5.87761 6.99806 5.96635 7.2123 6.12431 7.37026C6.28227 7.52822 6.49651 7.61696 6.7199 7.61696H8.97107C9.19446 7.61696 9.4087 7.7057 9.56666 7.86366C9.72462 8.02162 9.81336 8.23586 9.81336 8.45925V9.28259C9.81337 9.39326 9.83519 9.50285 9.87757 9.60508C9.91995 9.70732 9.98206 9.8002 10.0604 9.87842L10.5116 10.3296C9.65663 11.2439 8.48162 11.7927 7.23178 11.8615Z"
              fill="inherit"/>

    </symbol>

    <symbol viewBox="0 0 20 20" id="Helper" xmlns="http://www.w3.org/2000/svg">
        <path d="M9.2756 11.5065C8.9983 11.5065 8.7627 11.2794 8.7993 11.0046C8.8196 10.8526 8.8513 10.7447 8.8945 10.5978C8.8956 10.5942 8.8966 10.5905 8.8977 10.5869C8.9053 10.5613 8.9131 10.5344 8.9213 10.5059C9.0204 10.1735 9.1642 9.90508 9.3528 9.70048C9.5414 9.49598 9.7683 9.31058 10.0336 9.14438C10.2317 9.01658 10.4091 8.88388 10.5657 8.74648C10.7223 8.60908 10.847 8.45728 10.9396 8.29108C11.0323 8.12168 11.0787 7.93311 11.0787 7.72537C11.0787 7.50484 11.0259 7.31148 10.9205 7.14529C10.815 6.9791 10.6728 6.85126 10.4938 6.76177C10.318 6.67228 10.1231 6.62754 9.9089 6.62754C9.7012 6.62754 9.5046 6.67388 9.3193 6.76656C9.1339 6.85605 8.9821 6.99028 8.8638 7.16926C8.8251 7.22675 8.7923 7.28885 8.7652 7.35556C8.6641 7.60488 8.459 7.82604 8.19 7.82604H7.22875C6.94771 7.82604 6.71708 7.59326 6.76178 7.3158C6.82867 6.90051 6.96685 6.54325 7.17632 6.24401C7.46716 5.82533 7.85228 5.51372 8.3317 5.30918C8.8111 5.10143 9.34 4.99756 9.9185 4.99756C10.5545 4.99756 11.117 5.10303 11.606 5.31397C12.095 5.52171 12.4785 5.82374 12.7566 6.22004C13.0346 6.61635 13.1737 7.09416 13.1737 7.65346C13.1737 8.02738 13.1113 8.35978 12.9867 8.65058C12.8652 8.93828 12.6943 9.19398 12.4737 9.41768C12.2532 9.63818 11.9927 9.83798 11.6923 10.0169C11.4398 10.1672 11.2321 10.3238 11.0691 10.4868C10.9093 10.6498 10.7894 10.8383 10.7095 11.0525C10.7037 11.0687 10.6981 11.0851 10.6926 11.1015C10.6167 11.3313 10.4136 11.5065 10.1716 11.5065H9.2756Z"
              fill="inherit"/>
        <path d="M9.7219 15.0746C9.4023 15.0746 9.1291 14.9628 8.9022 14.7391C8.6784 14.5121 8.5682 14.2405 8.5714 13.9241C8.5682 13.6109 8.6784 13.3424 8.9022 13.1187C9.1291 12.895 9.4023 12.7831 9.7219 12.7831C10.0256 12.7831 10.2924 12.895 10.5226 13.1187C10.7527 13.3424 10.8693 13.6109 10.8725 13.9241C10.8693 14.135 10.8134 14.3284 10.7047 14.5042C10.5993 14.6767 10.4602 14.8158 10.2876 14.9212C10.1151 15.0235 9.9265 15.0746 9.7219 15.0746Z"
              fill="inherit"/>
        <path fill-rule="evenodd" clip-rule="evenodd"
              d="M20 10C20 15.5228 15.5228 20 10 20C4.47715 20 0 15.5228 0 10C0 4.47715 4.47715 0 10 0C15.5228 0 20 4.47715 20 10ZM18 10C18 14.4183 14.4183 18 10 18C5.58172 18 2 14.4183 2 10C2 5.58172 5.58172 2 10 2C14.4183 2 18 5.58172 18 10Z"
              fill="inherit"/>
    </symbol>

    <symbol viewBox="0 0 20 20" id="Moon" xmlns="http://www.w3.org/2000/svg">
        <path fill-rule="evenodd" clip-rule="evenodd"
              d="M18.6716 10.4857C19.1118 10.1222 19.9647 10.4293 19.9506 11C19.9211 11.2976 19.8785 11.5914 19.8234 11.8807C19.806 11.9721 19.7874 12.0631 19.7675 12.1537C19.766 12.1605 19.7645 12.1673 19.763 12.1741C18.7703 16.6516 14.7762 20 10 20C4.47715 20 0 15.5229 0 10C0 5.2238 3.34843 1.22966 7.82589 0.237001C7.83271 0.235491 7.83953 0.233991 7.84636 0.232491C7.93689 0.212621 8.0279 0.19397 8.1193 0.17657C8.4087 0.12151 8.7024 0.0789206 9 0.0493706C9.5707 0.0352806 9.8778 0.88819 9.5143 1.32842C9.3941 1.47405 9.2798 1.62501 9.1719 1.78085C9.1294 1.84229 9.0879 1.90449 9.0474 1.96741C9.0299 1.99456 9.0126 2.02183 8.9955 2.04925C8.9926 2.05394 8.9897 2.05864 8.9867 2.06335C8.3644 3.06719 8 4.24919 8 5.5C8 9.0899 10.9102 12 14.5 12C15.7508 12 16.9328 11.6356 17.9367 11.0133C17.9414 11.0103 17.9461 11.0074 17.9508 11.0045C17.9782 10.9874 18.0054 10.9701 18.0326 10.9527C18.0955 10.9122 18.1577 10.8706 18.2192 10.8281C18.375 10.7202 18.526 10.606 18.6716 10.4857ZM14.5 14C15.4274 14 16.3231 13.8475 17.162 13.5693C15.8503 16.1956 13.1352 18 10 18C5.58172 18 2 14.4183 2 10C2 6.86482 3.80438 4.14966 6.43075 2.83798C6.15247 3.67692 6 4.57263 6 5.5C6 10.1944 9.8056 14 14.5 14Z"
              fill="inherit"/>
    </symbol>

    <symbol viewBox="0 0 18 18" id="SignOut" xmlns="http://www.w3.org/2000/svg">
        <path d="M8.99991 1C8.99991 1.55228 8.55219 2 7.99991 2H1.99991L1.99991 16H7.99991C8.55219 16 8.99991 16.4477 8.99991 17C8.99991 17.5523 8.55219 18 7.99991 18H1.99991C0.895339 18 -9.15527e-05 17.1046 -9.15527e-05 16V2C-9.15527e-05 0.89543 0.89534 0 1.99991 0H7.99991C8.55219 0 8.99991 0.447715 8.99991 1Z"
              fill="inherit"/>
        <path d="M12 12.5859L14.5857 10.0001H5.99996C5.44767 10.0001 4.99996 9.55238 4.99996 9.0001C4.99996 8.44781 5.44767 8.0001 5.99996 8.0001L14.5857 8.00009L11.9999 5.41428C11.6094 5.02376 11.6094 4.39059 11.9999 4.00007C12.3905 3.60954 13.0236 3.60954 13.4141 4.00007L17.7071 8.29299C17.8946 8.48053 18 8.73488 18 9.00009C18 9.26531 17.8946 9.51967 17.7071 9.7072L13.4142 14.0001C13.0237 14.3906 12.3905 14.3906 12 14.0001C11.6095 13.6095 11.6095 12.9764 12 12.5859Z"
              fill="inherit"/>
    </symbol>

    <symbol id="Star" viewBox="0 0 22 21" xmlns="http://www.w3.org/2000/svg">
        <path fill-rule="evenodd" clip-rule="evenodd"
              d="M10.0771 1.46985C10.4187 0.648559 11.5821 0.648559 11.9237 1.46985L14.3331 7.26279L20.5871 7.76417C21.4738 7.83525 21.8333 8.94176 21.1578 9.5204L16.3929 13.602L17.8486 19.7049C18.055 20.5701 17.1138 21.2539 16.3547 20.7903L11.0004 17.5199L5.64613 20.7903C4.88703 21.2539 3.94578 20.5701 4.15217 19.7049L5.60791 13.602L0.84305 9.5204C0.16751 8.94176 0.52703 7.83525 1.41369 7.76417L7.66766 7.26279L10.0771 1.46985ZM12.4865 8.03086C12.7745 8.72333 13.4257 9.1965 14.1733 9.2564L18.0307 9.5656L15.0918 12.0831C14.5222 12.571 14.2735 13.3366 14.4475 14.0661L15.3454 17.8302L12.0429 15.8131C11.4029 15.4222 10.5979 15.4222 9.9579 15.8131L6.65544 17.8302L7.55333 14.0661C7.72734 13.3366 7.4786 12.571 6.90902 12.0831L3.97011 9.5656L7.82748 9.2564C8.57506 9.1965 9.2263 8.72333 9.5143 8.03086L11.0004 4.45784L12.4865 8.03086Z"
              fill="inherit"/>
    </symbol>

    <symbol viewBox="0 0 12 7" id="ArrowDown" xmlns="http://www.w3.org/2000/svg">
        <path d="M2.41707 1.00001L6.0029 4.58581L9.5887 1.00001C9.9792 0.609533 10.6123 0.609533 11.0029 1.00001C11.0517 1.04891 11.0944 1.10151 11.131 1.15691C11.3873 1.54511 11.3446 2.07261 11.0029 2.41431L6.71 6.70721C6.5224 6.89471 6.2681 7.00001 6.0029 7.00001C5.7376 7.00001 5.4833 6.89471 5.2958 6.70721L1.00285 2.41431C0.612331 2.02371 0.612331 1.39061 1.00285 1.00001C1.05167 0.951243 1.10428 0.908533 1.15973 0.871923C1.54788 0.615643 2.07536 0.658353 2.41707 1.00001Z"
              fill="inherit"/>
    </symbol>

    <symbol viewBox="0 0 20 14" id="Checked" xmlns="http://www.w3.org/2000/svg">
        <path d="M18.9953 1.96425C19.387 1.57492 19.3889 0.941759 18.9996 0.550049C18.6102 0.158339 17.9771 0.15642 17.5854 0.54575L6.97661 11.0903L2.41377 6.5573C2.02196 6.1681 1.3888 6.1702 0.99956 6.562C0.61032 6.9538 0.6124 7.5869 1.0042 7.9762L6.27201 13.2095C6.66206 13.597 7.29179 13.5969 7.68175 13.2093L18.9953 1.96425Z"
              fill="inherit"/>
    </symbol>

    <symbol id="Image" viewBox="0 0 18 18" xmlns="http://www.w3.org/2000/svg">
        <path d="M9 6.25C9 7.2165 8.2165 8 7.25 8C6.2835 8 5.5 7.2165 5.5 6.25C5.5 5.2835 6.2835 4.5 7.25 4.5C8.2165 4.5 9 5.2835 9 6.25Z"
              fill="inherit"/>
        <path fill-rule="evenodd" clip-rule="evenodd"
              d="M0 2C0 0.89543 0.89543 0 2 0H16C17.1046 0 18 0.89543 18 2V16C18 17.1046 17.1046 18 16 18H2C0.89543 18 0 17.1046 0 16V2ZM2 10.2778L2.69519 9.6598C3.4427 8.9954 4.56613 8.9853 5.3255 9.6361L7.5 11.5L11.5858 7.4142C12.3668 6.63317 13.6332 6.63317 14.4142 7.4142L16 9V2H2V10.2778ZM13 8.8284L16 11.8284V16H2V12.9537L4.02391 11.1547L6.19842 13.0185C6.9919 13.6986 8.1752 13.6532 8.9142 12.9142L13 8.8284Z"
              fill="inherit"/>
    </symbol>

    <symbol viewBox="0 0 18 18" id="Chart" xmlns="http://www.w3.org/2000/svg">
        <path d="M9 14C8.4477 14 8 13.5523 8 13V5C8 4.44772 8.4477 4 9 4C9.5523 4 10 4.44772 10 5V13C10 13.5523 9.5523 14 9 14Z"
              fill="inherit"/>
        <path d="M5 14C4.44772 14 4 13.5523 4 13V8C4 7.4477 4.44772 7 5 7C5.55229 7 6 7.4477 6 8V13C6 13.5523 5.55229 14 5 14Z"
              fill="inherit"/>
        <path d="M13 14C12.4477 14 12 13.5523 12 13V10C12 9.4477 12.4477 9 13 9C13.5523 9 14 9.4477 14 10V13C14 13.5523 13.5523 14 13 14Z"
              fill="inherit"/>
        <path fill-rule="evenodd" clip-rule="evenodd"
              d="M0 2C0 0.89543 0.89543 0 2 0H16C17.1046 0 18 0.89543 18 2V16C18 17.1046 17.1046 18 16 18H2C0.89543 18 0 17.1046 0 16V2ZM2 16V2H16V16H2Z"
              fill="inherit"/>
    </symbol>

    <symbol viewBox="0 0 18 18" id="ThreeDots" xmlns="http://www.w3.org/2000/svg">
        <path d="M2 0.25C1.0335 0.25 0.25 1.0335 0.25 2C0.25 2.9665 1.0335 3.75 2 3.75C2.9665 3.75 3.75 2.9665 3.75 2C3.75 1.0335 2.9665 0.25 2 0.25Z"
              fill="inherit"/>
        <path d="M0.25 9C0.25 8.0335 1.0335 7.25 2 7.25C2.9665 7.25 3.75 8.0335 3.75 9C3.75 9.9665 2.9665 10.75 2 10.75C1.0335 10.75 0.25 9.9665 0.25 9Z"
              fill="inherit"/>
        <path d="M0.25 16C0.25 15.0335 1.0335 14.25 2 14.25C2.9665 14.25 3.75 15.0335 3.75 16C3.75 16.9665 2.9665 17.75 2 17.75C1.0335 17.75 0.25 16.9665 0.25 16Z"
              fill="inherit"/>
    </symbol>

    <symbol viewBox="0 0 20 20" id="Global" xmlns="http://www.w3.org/2000/svg">
        <path fill-rule="evenodd" clip-rule="evenodd"
              d="M10 20C15.5228 20 20 15.5228 20 10C20 4.47715 15.5228 0 10 0C4.47715 0 0 4.47715 0 10C0 15.5228 4.47715 20 10 20ZM18 10C18 10.6906 17.9125 11.3608 17.748 12H14.41C14.469 11.3538 14.5 10.6849 14.5 10C14.5 9.3151 14.469 8.6462 14.41 8H17.748C17.9125 8.6392 18 9.3094 18 10ZM14.1256 6H16.9297C16.046 4.47231 14.6716 3.26398 13.0221 2.59049C13.4904 3.53438 13.8689 4.69453 14.1256 6ZM6.97794 2.59049C5.32837 3.26398 3.95398 4.47231 3.07026 6H5.87444C6.13111 4.69453 6.50959 3.53438 6.97794 2.59049ZM5.59002 8H2.25204C2.08751 8.6392 2 9.3094 2 10C2 10.6906 2.08751 11.3608 2.25204 12H5.59002C5.53099 11.3538 5.5 10.6849 5.5 10C5.5 9.3151 5.53099 8.6462 5.59002 8ZM5.87444 14H3.07026C3.95398 15.5277 5.32837 16.736 6.97794 17.4095C6.50959 16.4656 6.13111 15.3055 5.87444 14ZM13.0221 17.4095C14.6716 16.736 16.046 15.5277 16.9297 14H14.1256C13.8689 15.3055 13.4904 16.4656 13.0221 17.4095ZM12.5 10C12.5 10.6943 12.4652 11.3635 12.4008 12H7.59918C7.53484 11.3635 7.5 10.6943 7.5 10C7.5 9.3057 7.53484 8.6365 7.59918 8H12.4008C12.4652 8.6365 12.5 9.3057 12.5 10ZM12.0822 6C11.8907 5.14167 11.6428 4.38215 11.3581 3.74966C11.0204 2.99913 10.6701 2.51413 10.3818 2.24316C10.2431 2.11273 10.1393 2.05118 10.079 2.02377C10.031 2.00192 10.008 2.00012 10.0017 2H9.9983C9.992 2.00012 9.969 2.00192 9.921 2.02377C9.8607 2.05118 9.7569 2.11273 9.6182 2.24316C9.3299 2.51413 8.9796 2.99913 8.6419 3.74966C8.3572 4.38215 8.1093 5.14167 7.91779 6H12.0822ZM7.91779 14C8.1093 14.8583 8.3572 15.6179 8.6419 16.2503C8.9796 17.0009 9.3299 17.4859 9.6182 17.7568C9.7569 17.8873 9.8607 17.9488 9.921 17.9762C9.9689 17.998 9.9919 17.9999 9.9983 18H10.0017C10.0081 17.9999 10.0311 17.998 10.079 17.9762C10.1393 17.9488 10.2431 17.8873 10.3818 17.7568C10.6701 17.4859 11.0204 17.0009 11.3581 16.2503C11.6428 15.6179 11.8907 14.8583 12.0822 14H7.91779Z"
              fill="inherit"/>
    </symbol>

    <symbol id="Share" viewBox="0 0 24 24" xmlns="http://www.w3.org/2000/svg">
        <path fill-rule="evenodd" clip-rule="evenodd"
              d="M12.9993 4.41412V7.9999C6.12487 7.9999 2.88067 12.6091 1.18706 17.5047C0.834871 18.5227 2.3454 19.2996 3.21256 18.6605C5.31313 17.1124 7.81762 16.2975 10.9993 16.0683C11.638 16.0223 12.3039 15.9999 12.9993 15.9999V19.5857C12.9993 20.4766 14.0765 20.9228 14.7065 20.2928L22.2922 12.707C22.6828 12.3165 22.6828 11.6833 22.2922 11.2928L14.7065 3.70701C14.0765 3.07704 12.9993 3.52321 12.9993 4.41412ZM12.9993 9.99988C14.1039 9.99988 14.9993 9.10447 14.9993 7.9999V6.82833L20.1709 11.9999L14.9993 17.1715V15.9999C14.9993 14.8954 14.1039 13.9999 12.9993 13.9999C9.54056 13.9999 6.59952 14.5232 4.05575 15.8037C4.71511 14.4815 5.52248 13.309 6.51818 12.3756C8.02347 10.9646 10.0618 9.99988 12.9993 9.99988Z"
              fill="inherit"/>
    </symbol>


    <symbol viewBox="0 0 24 24" id="Comment" xmlns="http://www.w3.org/2000/svg">
        <path fill-rule="evenodd" clip-rule="evenodd"
              d="M2 16C2 17.1046 2.89543 18 4 18H6V21.7732C6 22.636 7.01946 23.0938 7.66436 22.5206L12.75 18H20C21.1046 18 22 17.1046 22 16V5C22 3.89543 21.1046 3 20 3H4C2.89543 3 2 3.89543 2 5V16ZM8 18C8 16.8954 7.10457 16 6 16H4V5H20V16H12.75C12.2602 16 11.7874 16.1798 11.4213 16.5052L8 19.5463V18Z"
              fill="inherit"/>
    </symbol>

    <symbol viewBox="0 0 24 24" id="Like" xmlns="http://www.w3.org/2000/svg">
        <path fill-rule="evenodd" clip-rule="evenodd"
              d="M15.774 4.38807L15 8H20C21.6569 8 23 9.34315 23 11V14.0557C23 14.6767 22.8554 15.2892 22.5777 15.8446L20.8292 19.3416C20.321 20.358 19.2822 21 18.1459 21H4C2.89543 21 2 20.1046 2 19V11C2 9.89543 2.89543 9 4 9H7L11.4514 1.87769C11.7927 1.33169 12.3911 1 13.035 1C14.8184 1 16.1476 2.64432 15.774 4.38807ZM7 11H4V19H7V11ZM19.0403 18.4472C18.8709 18.786 18.5247 19 18.1459 19H9V9.57359L13.1065 3.00312C13.58 3.04459 13.9202 3.4939 13.8184 3.96901L13.0444 7.58094C12.9178 8.17152 13.065 8.78766 13.4447 9.25736C13.8244 9.72705 14.396 10 15 10H20C20.5523 10 21 10.4477 21 11V14.0557C21 14.3662 20.9277 14.6724 20.7889 14.9502L19.0403 18.4472Z"
              fill="inherit"/>
    </symbol>

    <symbol viewBox="0 0 16 21" id="All" xmlns="http://www.w3.org/2000/svg">
        <path d="M12 9C12 9.5523 11.5523 10 11 10H5C4.44772 10 4 9.5523 4 9C4 8.44772 4.44772 8 5 8H11C11.5523 8 12 8.44772 12 9Z"
              fill="inherit"/>
        <path d="M10 13C10 13.5523 9.5523 14 9 14H5C4.44772 14 4 13.5523 4 13C4 12.4477 4.44772 12 5 12H9C9.5523 12 10 12.4477 10 13Z"
              fill="inherit"/>
        <path fill-rule="evenodd" clip-rule="evenodd"
              d="M6 0C4.89543 0 4 0.89543 4 2H2C0.89543 2 0 2.89543 0 4V19C0 20.1046 0.89543 21 2 21H14C15.1046 21 16 20.1046 16 19V4C16 2.89543 15.1046 2 14 2H12C12 0.89543 11.1046 0 10 0H6ZM12 4C12 5.10457 11.1046 6 10 6H6C4.89543 6 4 5.10457 4 4H2V19H14V4H12ZM6 2H10V4H6V2Z"
              fill="inherit"/>
    </symbol>

    <symbol viewBox="0 0 20 19" id="Completed" xmlns="http://www.w3.org/2000/svg">
        <path d="M14.5 7.49999C14.8905 7.89052 14.8905 8.5237 14.5 8.9142L9.7071 13.7071C9.3166 14.0976 8.6834 14.0976 8.2929 13.7071L6 11.4142C5.60948 11.0237 5.60948 10.3905 6 10C6.39053 9.6095 7.02369 9.6095 7.41422 10L9 11.5858L13.0858 7.49999C13.1346 7.45118 13.1872 7.40845 13.2427 7.37184C13.6308 7.11556 14.1583 7.15828 14.5 7.49999Z"
              fill="inherit"/>
        <path fill-rule="evenodd" clip-rule="evenodd"
              d="M2 2.99998H4V1.74998C4 1.19769 4.44772 0.749985 5 0.749985C5.55229 0.749985 6 1.19769 6 1.74998V2.99998H14V1.74998C14 1.19769 14.4477 0.749985 15 0.749985C15.5523 0.749985 16 1.19769 16 1.74998V2.99998H18C19.1046 2.99998 20 3.89541 20 4.99998V17C20 18.1046 19.1046 19 18 19H2C0.89543 19 0 18.1046 0 17V4.99998C0 3.89541 0.89543 2.99998 2 2.99998ZM2 17V4.99998H18V17H2Z"
              fill="inherit"/>
    </symbol>

    <symbol viewBox="0 0 20 20" id="Ongoing" xmlns="http://www.w3.org/2000/svg">
        <path d="M10 5.5C9.4477 5.5 9 5.94772 9 6.5V10C9 10.3573 9.1906 10.6874 9.5 10.866L12.9641 12.866C13.0239 12.9005 13.0858 12.9282 13.1488 12.9492C13.5901 13.0963 14.0885 12.9185 14.3301 12.5C14.6063 12.0217 14.4424 11.4101 13.9641 11.134L11 9.4227V6.5C11 5.94772 10.5523 5.5 10 5.5Z"
              fill="inherit"/>
        <path fill-rule="evenodd" clip-rule="evenodd"
              d="M10 20C15.5228 20 20 15.5228 20 10C20 4.47715 15.5228 0 10 0C4.47715 0 0 4.47715 0 10C0 15.5228 4.47715 20 10 20ZM10 18C14.4183 18 18 14.4183 18 10C18 5.58172 14.4183 2 10 2C5.58172 2 2 5.58172 2 10C2 14.4183 5.58172 18 10 18Z"
              fill="inherit"/>
    </symbol>

    <symbol viewBox="0 0 20 21" id="Delete" xmlns="http://www.w3.org/2000/svg">
        <path d="M7 9.5C7.39052 9.1095 8.0237 9.1095 8.4142 9.5L10 11.0858L11.5858 9.5C11.9763 9.1095 12.6095 9.1095 13 9.5C13.3905 9.8905 13.3905 10.5237 13 10.9142L11.4142 12.5L13 14.0858C13.3905 14.4763 13.3905 15.1095 13 15.5C12.6095 15.8905 11.9763 15.8905 11.5858 15.5L10 13.9142L8.4142 15.5C8.0237 15.8905 7.39053 15.8905 7 15.5C6.60948 15.1095 6.60948 14.4763 7 14.0858L8.5858 12.5L7 10.9142C6.60948 10.5237 6.60948 9.8905 7 9.5Z"
              fill="inherit"/>
        <path fill-rule="evenodd" clip-rule="evenodd"
              d="M7 -3.05176e-05C5.89543 -3.05176e-05 5 0.895402 5 1.99997V3.99997H1C0.44772 3.99997 0 4.44768 0 4.99997C0 5.55225 0.44772 5.99997 1 5.99997H2.11765L2.88926 19.1174C2.95145 20.1746 3.82686 21 4.88581 21H15.1142C16.1731 21 17.0486 20.1746 17.1107 19.1174L17.8824 5.99997H19C19.5523 5.99997 20 5.55225 20 4.99997C20 4.44768 19.5523 3.99997 19 3.99997H15V1.99997C15 0.895402 14.1046 -3.05176e-05 13 -3.05176e-05H7ZM13 3.99997V1.99997H7V3.99997H13ZM15.8789 5.99997H4.12111L4.88581 19H15.1142L15.8789 5.99997Z"
              fill="inherit"/>
    </symbol>

    <symbol viewBox="0 0 20 18" id="ArrowBack" xmlns="http://www.w3.org/2000/svg">
        <path d="M8.9549 15.5408L3.41418 10H19C19.5523 10 20 9.5523 20 9C20 8.4478 19.5523 8 19 8H3.41418L8.9549 2.4593C9.3454 2.06878 9.3454 1.43561 8.9549 1.04509C8.5644 0.654567 7.93123 0.654567 7.54071 1.04509L0.292859 8.2929C-0.0976605 8.6835 -0.0976605 9.3166 0.292859 9.7071L7.54071 16.955C7.93123 17.3455 8.5644 17.3455 8.9549 16.955C9.3454 16.5645 9.3454 15.9313 8.9549 15.5408Z"
              fill="inherit"/>
    </symbol>

    <symbol viewBox="0 0 19 21" id="FileLoader" xmlns="http://www.w3.org/2000/svg">
        <path d="M10.7069 3.22182C11.8785 2.05025 13.778 2.05025 14.9496 3.22182C16.1211 4.39339 16.1211 6.29289 14.9496 7.46446L7.8785 14.5355C7.48797 14.9261 6.85481 14.9261 6.46429 14.5355C6.07376 14.145 6.07376 13.5118 6.46429 13.1213L12.8283 6.75735C13.2188 6.36683 13.2188 5.73366 12.8283 5.34314C12.4377 4.95262 11.8046 4.95262 11.414 5.34314L5.05007 11.7071C3.8785 12.8787 3.8785 14.7782 5.05007 15.9497C6.22164 17.1213 8.1211 17.1213 9.2927 15.9497L16.3638 8.87867C18.3164 6.92605 18.3164 3.76023 16.3638 1.80761C14.4112 -0.145017 11.2453 -0.145017 9.2927 1.80761L2.22164 8.87867C-0.512031 11.6123 -0.512031 16.0445 2.22164 18.7782C4.95531 21.5118 9.3875 21.5118 12.1211 18.7782L18.4851 12.4142C18.8756 12.0237 18.8756 11.3905 18.4851 11C18.0946 10.6095 17.4614 10.6095 17.0709 11L10.7069 17.364C8.7543 19.3166 5.58848 19.3166 3.63586 17.364C1.68323 15.4113 1.68323 12.2455 3.63586 10.2929L10.7069 3.22182Z"
              fill="inherit"/>
    </symbol>


    <symbol viewBox="0 0 20 20" id="Clock" xmlns="http://www.w3.org/2000/svg">
        <path d="M10 5.5C9.4477 5.5 9 5.94772 9 6.5V10C9 10.3573 9.1906 10.6874 9.5 10.866L12.9641 12.866C13.0239 12.9005 13.0858 12.9282 13.1488 12.9492C13.5901 13.0963 14.0885 12.9185 14.3301 12.5C14.6063 12.0217 14.4424 11.4101 13.9641 11.134L11 9.4227V6.5C11 5.94772 10.5523 5.5 10 5.5Z"
              fill="inherit"/>
        <path fill-rule="evenodd" clip-rule="evenodd"
              d="M10 20C15.5228 20 20 15.5228 20 10C20 4.47715 15.5228 0 10 0C4.47715 0 0 4.47715 0 10C0 15.5228 4.47715 20 10 20ZM10 18C14.4183 18 18 14.4183 18 10C18 5.58172 14.4183 2 10 2C5.58172 2 2 5.58172 2 10C2 14.4183 5.58172 18 10 18Z"
              fill="inherit"/>
    </symbol>
    <symbol id="List" viewBox="0 0 32 32"
            xmlns="http://www.w3.org/2000/svg">
        <path d="M29,16c0,1.104-0.896,2-2,2H11c-1.104,0-2-0.896-2-2s0.896-2,2-2h16C28.104,14,29,14.896,29,16z"
              id="XMLID_352_" fill="inherit"/>
        <path d="M29,6c0,1.104-0.896,2-2,2H11C9.896,8,9,7.104,9,6s0.896-2,2-2h16C28.104,4,29,4.896,29,6z"
              id="XMLID_354_" fill="inherit"/>
        <path d="M29,26c0,1.104-0.896,2-2,2H11c-1.104,0-2-0.896-2-2s0.896-2,2-2h16C28.104,24,29,24.896,29,26z"
              id="XMLID_356_" fill="inherit"/>
        <path d="M3,6c0,1.103,0.897,2,2,2s2-0.897,2-2S6.103,4,5,4S3,4.897,3,6z" id="XMLID_358_" fill="inherit"/>
        <path d="M3,16c0,1.103,0.897,2,2,2s2-0.897,2-2s-0.897-2-2-2S3,14.897,3,16z" id="XMLID_360_" fill="inherit"/>
        <path d="M3,26c0,1.103,0.897,2,2,2s2-0.897,2-2s-0.897-2-2-2S3,24.897,3,26z" id="XMLID_362_" fill="inherit"/>
    </symbol>
    <symbol id="Pin" viewBox="0 0 32 32"
            xmlns="http://www.w3.org/2000/svg">
        <path fill="inherit"
              d="M16.729,4.271c-0.389-0.391-1.021-0.393-1.414-0.004c-0.104,0.104-0.176,0.227-0.225,0.355  c-0.832,1.736-1.748,2.715-2.904,3.293C10.889,8.555,9.4,9,7,9C6.87,9,6.74,9.025,6.618,9.076C6.373,9.178,6.179,9.373,6.077,9.617  c-0.101,0.244-0.101,0.52,0,0.764c0.051,0.123,0.124,0.234,0.217,0.326l3.243,3.243L5,20l6.05-4.537l3.242,3.242  c0.092,0.094,0.203,0.166,0.326,0.217C14.74,18.973,14.87,19,15,19s0.26-0.027,0.382-0.078c0.245-0.102,0.44-0.295,0.541-0.541  C15.974,18.26,16,18.129,16,18c0-2.4,0.444-3.889,1.083-5.166c0.577-1.156,1.556-2.072,3.293-2.904  c0.129-0.049,0.251-0.121,0.354-0.225c0.389-0.393,0.387-1.025-0.004-1.414L16.729,4.271z"/>
    </symbol>

    <symbol  viewBox="0 0 16 20" id="Docx" xmlns="http://www.w3.org/2000/svg">
        <path d="M10.0009 12C10.0009 12.5523 9.5532 13 9.0009 13H5.00092C4.44863 13 4.00092 12.5523 4.00092 12C4.00092 11.4477 4.44863 11 5.00092 11H9.0009C9.5532 11 10.0009 11.4477 10.0009 12Z"
              fill="inherit"/>
        <path d="M12.0009 8C12.0009 8.55231 11.5532 9.00001 11.0009 9.00001H5.00092C4.44863 9.00001 4.00092 8.55231 4.00092 8C4.00092 7.44771 4.44863 7 5.00092 7H11.0009C11.5532 7 12.0009 7.44771 12.0009 8Z"
              fill="inherit"/>
        <path fill-rule="evenodd" clip-rule="evenodd"
              d="M15.4151 4.41422C15.7902 4.78929 16.0009 5.298 16.0009 5.82843V18C16.0009 19.1046 15.1055 20 14.0009 20H2.00092C0.896345 20 0.000915527 19.1046 0.000915527 18V2C0.000915527 0.89543 0.896345 0 2.00092 0H10.1725C10.7029 0 11.2116 0.21071 11.5867 0.58578L15.4151 4.41422ZM14.0009 5.82843V18H2.00092V2H10.1725L14.0009 5.82843Z"
              fill="inherit"/>
    </symbol>

</svg>