<svg width="16" height="20" viewBox="0 0 16 20" fill="none" xmlns="http://www.w3.org/2000/svg">
<path d="M10.0009 12C10.0009 12.5523 9.5532 13 9.0009 13H5.00092C4.44863 13 4.00092 12.5523 4.00092 12C4.00092 11.4477 4.44863 11 5.00092 11H9.0009C9.5532 11 10.0009 11.4477 10.0009 12Z" fill="black"/>
<path d="M12.0009 8C12.0009 8.55231 11.5532 9.00001 11.0009 9.00001H5.00092C4.44863 9.00001 4.00092 8.55231 4.00092 8C4.00092 7.44771 4.44863 7 5.00092 7H11.0009C11.5532 7 12.0009 7.44771 12.0009 8Z" fill="black"/>
<path fill-rule="evenodd" clip-rule="evenodd" d="M15.4151 4.41422C15.7902 4.78929 16.0009 5.298 16.0009 5.82843V18C16.0009 19.1046 15.1055 20 14.0009 20H2.00092C0.896345 20 0.000915527 19.1046 0.000915527 18V2C0.000915527 0.89543 0.896345 0 2.00092 0H10.1725C10.7029 0 11.2116 0.21071 11.5867 0.58578L15.4151 4.41422ZM14.0009 5.82843V18H2.00092V2H10.1725L14.0009 5.82843Z" fill="black"/>
</svg>
